<svg width="585.668" height="397.459" viewBox="0 0 585.668 397.459">
<path d="M240.987,46c-25.553,7.73-55.773,16.1-77.888,26.189-34.056,16.248-13.252,19.617,13.507,17.669,46.27-3.533,92.47-11.2,138.5-17.044,14.939-1.953,30.373-3.581,43.959-3.817,31.943-.235,7.076,10.112-6.369,14.494-72.63,22.612-154.944,32.93-228.825,53.673-10.743,2.839-68.611,20.781-33.58,28.089,11.347,2.189,29.023,2.053,42.7,1.261,42.379-2.761,84.653-10.242,126.01-19.967,77.9-17.786,155.008-43.542,234.821-47.48,26.678-.959,66.263,7.929,33.362,36.92-22.068,18.106-54.1,28.883-81.989,37.441-46.642,13.662-94.664,23.305-142.289,31.508-59.631,10.39-120.128,14.423-180.564,17.841-20.295,1.464-69.222,5.043-76.231,23.638-2.19,14.206,26.792,20.088,40.926,21.766a189.449,189.449,0,0,0,26.027,1.059c91.421-3.516,179.053-36.567,269.273-50.811,25.9-4.139,130.771-18.932,143.508,4.04,4.115,15.977-45.8,31.669-61.769,36.327-50.862,14.4-103,23.728-155.384,30.629-25.5,3.807-67.066,7.185-83.333,25.283-4.908,5.836-2.762,12.926,3.509,17.044,8.417,5.672,19.215,7.92,30.582,8.861,50.033,2.786,99.216-19.8,148.922-24.963,20.977-2.7,57.447-.59,28.663,19.529-9.445,6.286-20.172,11.208-30.549,16.28" fill="none" stroke="#1a1818" stroke-linecap="round" stroke-linejoin="round" stroke-width="92"/>
</svg>